<?xml version="1.0" encoding="UTF-8" standalone="no"?>
<!DOCTYPE svg PUBLIC "-//W3C//DTD SVG 1.1//EN"
 "http://www.w3.org/Graphics/SVG/1.1/DTD/svg11.dtd">
<!-- Generated by graphviz version 2.38.0 (20140413.2041)
 -->
<!-- Title: architecture Pages: 1 -->
<svg width="4225pt" height="2637pt"
 viewBox="0.00 0.00 1014.00 633.00" xmlns="http://www.w3.org/2000/svg" xmlns:xlink="http://www.w3.org/1999/xlink">
<g id="graph0" class="graph" transform="scale(4.16667 4.16667) rotate(0) translate(4 629)">
<title>architecture</title>
<polygon fill="white" stroke="none" points="-4,4 -4,-629 1010,-629 1010,4 -4,4"/>
<g id="clust1" class="cluster"><title>cluster_cpu</title>
<polygon fill="none" stroke="black" points="71,-542 71,-617 250,-617 250,-542 71,-542"/>
<text text-anchor="middle" x="160.5" y="-601.8" font-family="Times,serif" font-size="14.00">CPU 1..N</text>
</g>
<g id="clust2" class="cluster"><title>cluster_kernel</title>
<polygon fill="none" stroke="black" points="15,-419 15,-494 373,-494 373,-419 15,-419"/>
<text text-anchor="middle" x="194" y="-478.8" font-family="Times,serif" font-size="14.00">Kernel</text>
</g>
<g id="clust3" class="cluster"><title>cluster_graph</title>
<polygon fill="none" stroke="black" points="8,-95 8,-170 361,-170 361,-95 8,-95"/>
<text text-anchor="middle" x="184.5" y="-154.8" font-family="Times,serif" font-size="14.00">Concurrent Provenance Graph</text>
</g>
<g id="clust4" class="cluster"><title>cluster_framework</title>
<polygon fill="none" stroke="black" points="78,-203 78,-386 330,-386 330,-203 78,-203"/>
<text text-anchor="middle" x="204" y="-370.8" font-family="Times,serif" font-size="14.00">&lt;Project Name&gt;</text>
</g>
<g id="clust5" class="cluster"><title>cluster_memory</title>
<polygon fill="none" stroke="black" points="338,-203 338,-278 576,-278 576,-203 338,-203"/>
<text text-anchor="middle" x="457" y="-262.8" font-family="Times,serif" font-size="14.00">Copy&#45;On&#45;Write overlay</text>
</g>
<g id="clust6" class="cluster"><title>cluster_programm</title>
<polygon fill="none" stroke="black" points="512,-8 512,-170 700,-170 700,-8 512,-8"/>
<text text-anchor="middle" x="606" y="-154.8" font-family="Times,serif" font-size="14.00">Application</text>
</g>
<!-- Intel PT -->
<g id="node1" class="node"><title>Intel PT</title>
<ellipse fill="lightgrey" stroke="black" cx="202" cy="-568" rx="40.0939" ry="18"/>
<text text-anchor="middle" x="202" y="-564.3" font-family="Times,serif" font-size="14.00">Intel PT</text>
</g>
<!-- PMU for Intel PT -->
<g id="node4" class="node"><title>PMU for Intel PT</title>
<ellipse fill="lightgrey" stroke="black" cx="291" cy="-445" rx="74.187" ry="18"/>
<text text-anchor="middle" x="291" y="-441.3" font-family="Times,serif" font-size="14.00">PMU for Intel PT</text>
</g>
<!-- Intel PT&#45;&gt;PMU for Intel PT -->
<g id="edge2" class="edge"><title>Intel PT&#45;&gt;PMU for Intel PT</title>
<path fill="none" stroke="black" d="M239.076,-560.831C256.206,-555.974 275.122,-547.333 286,-532 297.936,-515.176 298.462,-491.516 296.407,-473.27"/>
<polygon fill="black" stroke="black" points="299.854,-472.646 294.966,-463.245 292.925,-473.642 299.854,-472.646"/>
<text text-anchor="middle" x="385" y="-520.8" font-family="Times,serif" font-size="14.00">Provides packet stream of</text>
<text text-anchor="middle" x="385" y="-505.8" font-family="Times,serif" font-size="14.00">branch samples of every branch</text>
</g>
<!-- MMU -->
<g id="node2" class="node"><title>MMU</title>
<ellipse fill="lightgrey" stroke="black" cx="111" cy="-568" rx="32.4942" ry="18"/>
<text text-anchor="middle" x="111" y="-564.3" font-family="Times,serif" font-size="14.00">MMU</text>
</g>
<!-- Memorymanagement -->
<g id="node3" class="node"><title>Memorymanagement</title>
<ellipse fill="lightgrey" stroke="black" cx="111" cy="-445" rx="88.2844" ry="18"/>
<text text-anchor="middle" x="111" y="-441.3" font-family="Times,serif" font-size="14.00">Memorymanagement</text>
</g>
<!-- MMU&#45;&gt;Memorymanagement -->
<g id="edge3" class="edge"><title>MMU&#45;&gt;Memorymanagement</title>
<path fill="none" stroke="black" d="M111,-549.92C111,-530.035 111,-496.923 111,-473.423"/>
<polygon fill="black" stroke="black" points="114.5,-473.385 111,-463.385 107.5,-473.385 114.5,-473.385"/>
<text text-anchor="middle" x="140" y="-513.3" font-family="Times,serif" font-size="14.00">Page Fault</text>
</g>
<!-- tthread -->
<g id="node5" class="node"><title>tthread</title>
<polygon fill="lightgrey" stroke="black" points="168,-355 86,-355 86,-319 168,-319 168,-355"/>
<text text-anchor="middle" x="127" y="-333.3" font-family="Times,serif" font-size="14.00">libthread.so</text>
</g>
<!-- Memorymanagement&#45;&gt;tthread -->
<g id="edge4" class="edge"><title>Memorymanagement&#45;&gt;tthread</title>
<path fill="none" stroke="black" d="M113.571,-426.969C116.075,-410.378 119.923,-384.883 122.86,-365.431"/>
<polygon fill="black" stroke="black" points="126.351,-365.751 124.383,-355.341 119.429,-364.706 126.351,-365.751"/>
<text text-anchor="middle" x="160.5" y="-397.8" font-family="Times,serif" font-size="14.00">Segfault Signal</text>
</g>
<!-- PMU for Intel PT&#45;&gt;Intel PT -->
<g id="edge1" class="edge"><title>PMU for Intel PT&#45;&gt;Intel PT</title>
<path fill="none" stroke="black" d="M263.351,-461.762C236.621,-477.135 199.878,-498.677 198,-502 191.525,-513.458 191.765,-527.935 193.953,-540.317"/>
<polygon fill="black" stroke="black" points="190.545,-541.118 196.144,-550.113 197.377,-539.59 190.545,-541.118"/>
<text text-anchor="middle" x="242" y="-513.3" font-family="Times,serif" font-size="14.00">Enable Intel PT</text>
</g>
<!-- application_wrapper -->
<g id="node9" class="node"><title>application_wrapper</title>
<polygon fill="lightgrey" stroke="black" points="322,-355 186,-355 186,-319 322,-319 322,-355"/>
<text text-anchor="middle" x="254" y="-333.3" font-family="Times,serif" font-size="14.00">Application Wrapper</text>
</g>
<!-- PMU for Intel PT&#45;&gt;application_wrapper -->
<g id="edge9" class="edge"><title>PMU for Intel PT&#45;&gt;application_wrapper</title>
<path fill="none" stroke="black" d="M285.055,-426.969C279.21,-410.224 270.2,-384.41 263.387,-364.892"/>
<polygon fill="black" stroke="black" points="266.653,-363.629 260.053,-355.341 260.044,-365.935 266.653,-363.629"/>
<text text-anchor="middle" x="335" y="-397.8" font-family="Times,serif" font-size="14.00">Provides Perf events</text>
</g>
<!-- data flow/thread schedule -->
<g id="node7" class="node"><title>data flow/thread schedule</title>
<ellipse fill="lightgrey" stroke="black" cx="250" cy="-121" rx="102.882" ry="18"/>
<text text-anchor="middle" x="250" y="-117.3" font-family="Times,serif" font-size="14.00">data flow/thread schedule</text>
</g>
<!-- tthread&#45;&gt;data flow/thread schedule -->
<g id="edge6" class="edge"><title>tthread&#45;&gt;data flow/thread schedule</title>
<path fill="none" stroke="black" d="M168.177,-321.92C171.16,-320.925 174.125,-319.943 177,-319 202.244,-310.724 217.357,-321.707 234,-301 269.019,-257.432 262.859,-187.177 256.006,-148.926"/>
<polygon fill="black" stroke="black" points="259.428,-148.185 254.089,-139.034 252.556,-149.518 259.428,-148.185"/>
</g>
<!-- shared_mmap_file -->
<g id="node10" class="node"><title>shared_mmap_file</title>
<ellipse fill="lightgrey" stroke="black" cx="457" cy="-229" rx="111.28" ry="18"/>
<text text-anchor="middle" x="457" y="-225.3" font-family="Times,serif" font-size="14.00">Shared memory maped files</text>
</g>
<!-- tthread&#45;&gt;shared_mmap_file -->
<g id="edge8" class="edge"><title>tthread&#45;&gt;shared_mmap_file</title>
<path fill="none" stroke="black" d="M168.08,-321.6C171.086,-320.679 174.083,-319.802 177,-319 214.235,-308.767 224.672,-310.888 262,-301 294.473,-292.398 302.337,-289.223 334,-278 358.86,-269.188 386.221,-258.601 408.812,-249.614"/>
<polygon fill="black" stroke="black" points="410.194,-252.831 418.181,-245.87 407.596,-246.331 410.194,-252.831"/>
<text text-anchor="middle" x="337" y="-289.8" font-family="Times,serif" font-size="14.00">mprotect</text>
</g>
<!-- programm -->
<g id="node11" class="node"><title>programm</title>
<polygon fill="lightgrey" stroke="black" points="644,-139 568,-139 568,-103 644,-103 644,-139"/>
<text text-anchor="middle" x="606" y="-117.3" font-family="Times,serif" font-size="14.00">Programm</text>
</g>
<!-- tthread&#45;&gt;programm -->
<g id="edge11" class="edge"><title>tthread&#45;&gt;programm</title>
<path fill="none" stroke="black" d="M168.262,-321.142C171.198,-320.341 174.131,-319.615 177,-319 265.02,-300.138 514.542,-339.793 580,-278 598.152,-260.864 603.635,-189.371 605.288,-149.382"/>
<polygon fill="black" stroke="black" points="608.791,-149.363 605.653,-139.244 601.796,-149.111 608.791,-149.363"/>
<text text-anchor="middle" x="686.5" y="-225.3" font-family="Times,serif" font-size="14.00">replaces pthread/malloc family</text>
</g>
<!-- Control flow -->
<g id="node6" class="node"><title>Control flow</title>
<ellipse fill="lightgrey" stroke="black" cx="73" cy="-121" rx="56.59" ry="18"/>
<text text-anchor="middle" x="73" y="-117.3" font-family="Times,serif" font-size="14.00">Control flow</text>
</g>
<!-- libipt -->
<g id="node8" class="node"><title>libipt</title>
<polygon fill="lightgrey" stroke="black" points="218.5,-247 89.5,-247 89.5,-211 218.5,-211 218.5,-247"/>
<text text-anchor="middle" x="154" y="-225.3" font-family="Times,serif" font-size="14.00">Intel decoder library</text>
</g>
<!-- libipt&#45;&gt;Control flow -->
<g id="edge5" class="edge"><title>libipt&#45;&gt;Control flow</title>
<path fill="none" stroke="black" d="M140.986,-210.969C127.682,-193.559 106.885,-166.343 91.7942,-146.595"/>
<polygon fill="black" stroke="black" points="94.5675,-144.46 85.7147,-138.639 89.0055,-148.71 94.5675,-144.46"/>
</g>
<!-- application_wrapper&#45;&gt;libipt -->
<g id="edge7" class="edge"><title>application_wrapper&#45;&gt;libipt</title>
<path fill="none" stroke="black" d="M237.933,-318.969C221.557,-301.61 195.984,-274.503 177.367,-254.769"/>
<polygon fill="black" stroke="black" points="179.767,-252.213 170.359,-247.341 174.675,-257.016 179.767,-252.213"/>
<text text-anchor="middle" x="241.5" y="-289.8" font-family="Times,serif" font-size="14.00">Decode </text>
</g>
<!-- application_wrapper&#45;&gt;programm -->
<g id="edge14" class="edge"><title>application_wrapper&#45;&gt;programm:s</title>
<path fill="none" stroke="black" d="M322.147,-333.529C457.454,-327.91 749.56,-311.945 779,-278 800.84,-252.818 793.996,-232.77 779,-203 745.409,-136.315 714.592,-127.332 644,-103 638.884,-101.237 624.728,-97.8553 615.213,-97.8737"/>
<polygon fill="black" stroke="black" points="613.696,-94.7183 606,-102 616.557,-101.107 613.696,-94.7183"/>
<text text-anchor="middle" x="899" y="-225.3" font-family="Times,serif" font-size="14.00">Start application/setup execution trace</text>
</g>
<!-- shared_mmap_file&#45;&gt;programm -->
<g id="edge13" class="edge"><title>shared_mmap_file&#45;&gt;programm</title>
<path fill="none" stroke="black" d="M463.799,-210.751C469.171,-199.512 477.808,-185.574 490,-178 514.35,-162.873 528.002,-182.077 554,-170 565.72,-164.555 576.588,-155.481 585.326,-146.679"/>
<polygon fill="black" stroke="black" points="588.135,-148.801 592.423,-139.113 583.029,-144.012 588.135,-148.801"/>
<text text-anchor="middle" x="540" y="-181.8" font-family="Times,serif" font-size="14.00">Heap/Global Data</text>
</g>
<!-- child -->
<g id="node12" class="node"><title>child</title>
<polygon fill="lightgrey" stroke="black" points="644,-52 520,-52 520,-16 644,-16 644,-52"/>
<text text-anchor="middle" x="582" y="-30.3" font-family="Times,serif" font-size="14.00">Child of Programm</text>
</g>
<!-- shared_mmap_file&#45;&gt;child -->
<g id="edge12" class="edge"><title>shared_mmap_file&#45;&gt;child</title>
<path fill="none" stroke="black" d="M451.978,-210.867C445.15,-183.882 436.214,-130.865 459,-95 470.824,-76.3891 490.239,-63.3867 510.188,-54.3722"/>
<polygon fill="black" stroke="black" points="511.816,-57.4847 519.678,-50.3829 509.103,-51.0316 511.816,-57.4847"/>
<text text-anchor="middle" x="509" y="-117.3" font-family="Times,serif" font-size="14.00">Heap/Global Data</text>
</g>
<!-- programm&#45;&gt;child -->
<g id="edge10" class="edge"><title>programm&#45;&gt;child</title>
<path fill="none" stroke="black" d="M601.143,-102.799C597.825,-91.0474 593.361,-75.2383 589.579,-61.8421"/>
<polygon fill="black" stroke="black" points="592.935,-60.8481 586.85,-52.1754 586.199,-62.7503 592.935,-60.8481"/>
<text text-anchor="middle" x="672" y="-73.8" font-family="Times,serif" font-size="14.00">pthread_create() &#45;&gt; clone()</text>
</g>
</g>
</svg>
